<svg width="46" height="46" fill="none" xmlns="http://www.w3.org/2000/svg"><path d="M22.56 45.12a22.56 22.56 0 100-45.12 22.56 22.56 0 000 45.12z" fill="#0884FF"/><mask id="a" maskUnits="userSpaceOnUse" x="0" y="0" width="46" height="46"><path d="M22.56 45.12a22.56 22.56 0 100-45.12 22.56 22.56 0 000 45.12z" fill="#fff"/></mask><g mask="url(#a)"><path d="M12 12.86c0-.48.38-.86.86-.86h4.7c.47 0 .86.38.86.86v4.7c0 .47-.39.86-.86.86h-4.7a.86.86 0 01-.86-.86v-4.7zm4.58 3.72v-2.75h-2.75v2.75h2.75zM12 28.44c0-.47.38-.86.86-.86h4.7c.47 0 .86.39.86.86v4.7c0 .48-.39.86-.86.86h-4.7a.86.86 0 01-.86-.86v-4.7zm4.58 3.73v-2.75h-2.75v2.75h2.75zm11-19.31c0-.48.39-.86.86-.86h4.7c.48 0 .86.38.86.86v4.7c0 .47-.38.86-.86.86h-4.7a.86.86 0 01-.86-.86v-4.7zm4.59 3.72v-2.75h-2.75v2.75h2.75zm0 4.53c0-.48.38-.86.86-.86h.11c.48 0 .86.38.86.86v5.61c0 .48-.38.86-.86.86h-4.7a.86.86 0 01-.86-.86v-.11c0-.48.39-.86.86-.86h3.73v-4.64zm-4.59 9.17c0-.48.39-.86.86-.86h4.7c.48 0 .86.38.86.86v2.86c0 .48-.38.86-.86.86h-.11a.86.86 0 01-.86-.86v-1.89h-2.75v1.9c0 .47-.39.85-.86.85h-.12a.86.86 0 01-.86-.86v-2.86zm-7.33-17.42c0-.48.38-.86.86-.86h3.78c.48 0 .86.38.86.86v4.7c0 .47-.38.86-.86.86h-.11a.86.86 0 01-.86-.86v-3.73H21.1a.86.86 0 01-.86-.86v-.11zm3.67 8.25c0-.48.38-.86.86-.86h3.78c.47 0 .86.38.86.86v1.95c0 .47-.39.86-.86.86h-.12a.86.86 0 01-.86-.86v-.98h-1.83v2.81c0 .48-.38.86-.86.86h-2.8v1.83h2.8c.48 0 .86.39.86.86v4.7c0 .48-.38.86-.86.86h-.11a.86.86 0 01-.86-.86v-3.72H21.1a.86.86 0 01-.86-.86v-3.78c0-.48.38-.86.86-.86h2.8V21.1zM21.1 31.25h.11c.48 0 .86.38.86.86v1.03c0 .48-.38.86-.86.86h-.11a.86.86 0 01-.86-.86v-1.03c0-.48.38-.86.86-.86zm-4.58-7.33h1.03c.47 0 .86.38.86.86v.11c0 .48-.39.86-.86.86h-1.03a.86.86 0 01-.86-.86v-.11c0-.48.38-.86.86-.86zm3.72-7.4c0-.47.38-.85.86-.85h.11c.48 0 .86.38.86.86v4.7c0 .47-.38.85-.86.85h-7.39v2.81c0 .48-.38.86-.86.86h-.11a.86.86 0 01-.86-.86v-3.78c0-.48.38-.86.86-.86h7.39v-3.72z" fill="#fff"/><path d="M36.62 12.63l-1.2 1.11a.55.55 0 11-.75-.8l1.2-1.12a.55.55 0 11.75.81zM20.22 4.35l.1 1.64c.02.3-.22.56-.53.58a.55.55 0 01-.58-.52l-.1-1.64a.55.55 0 01.53-.58c.3-.03.56.21.58.52zM5.02 28.33l1.58-.41c.3-.08.6.1.68.4.07.3-.1.6-.4.67l-1.59.41c-.3.07-.6-.1-.67-.4-.09-.3.1-.6.4-.67z" fill="#49F9AA"/><path d="M4.95 37.9l1.3-1a.56.56 0 11.68.88l-1.3 1a.56.56 0 11-.68-.89z" fill="#FF949E"/><path d="M22.5 41.72a.54.54 0 100-1.09.54.54 0 000 1.09zM40.5 17.98a.54.54 0 100-1.09.54.54 0 000 1.09z" fill="#49F9AA"/><path d="M7.34 18.04a.54.54 0 100-1.09.54.54 0 000 1.09zM35.64 20.86a.54.54 0 100-1.09.54.54 0 000 1.09z" fill="#F7F24B"/><path d="M27.29 6.07a.5.5 0 100-.98.5.5 0 000 .98zM10.77 7.56a.5.5 0 100-.99.5.5 0 000 .99z" fill="#FF949E"/><path d="M36.68 42.71a.5.5 0 100-.98.5.5 0 000 .98zM43.51 10.65a.5.5 0 100-.99.5.5 0 000 .99z" fill="#49F9AA"/><path d="M2.15 6.56a.5.5 0 100-.98.5.5 0 000 .98z" fill="#0884FF"/><path d="M11.26 30.63a.5.5 0 100-.98.5.5 0 000 .98z" fill="#FF949E"/></g></svg>